<?xml version="1.0" encoding="UTF-8"?>
<svg version="1.1" xmlns="http://www.w3.org/2000/svg" width="512" height="512">
<path d="M0 0 C168.96 0 337.92 0 512 0 C512 168.96 512 337.92 512 512 C343.04 512 174.08 512 0 512 C0 343.04 0 174.08 0 0 Z " fill="#FEFEFE" transform="translate(0,0)"/>
<path d="M0 0 C0.7715593 -0.00979385 1.54311859 -0.01958771 2.33805847 -0.02967834 C27.84558959 -0.28696792 57.10039645 -0.49581717 77.58203125 17.23828125 C82.14779539 22.1464777 83.82932858 25.78060492 83.84945679 32.48739624 C83.86225174 34.41368614 83.86225174 34.41368614 83.87530518 36.37889099 C83.87460617 37.7999574 83.87368311 39.22102371 83.87255859 40.64208984 C83.87854368 42.14031815 83.88534918 43.63854337 83.89291382 45.13676453 C83.91058303 49.20499909 83.91526958 53.27314952 83.91654539 57.34141874 C83.91796702 59.88362344 83.92223683 62.42580675 83.92753983 64.96800613 C83.94604308 73.83838509 83.95421006 82.70870394 83.95263672 91.57910156 C83.9514352 99.84525248 83.97253867 108.11114233 84.00412405 116.37722719 C84.03028268 123.47629377 84.04100419 130.57527507 84.0397259 137.67438948 C84.03921615 141.91341492 84.04490659 146.15220836 84.066082 150.39118576 C84.08545759 154.37873225 84.0855938 158.36582527 84.07104874 162.35338783 C84.06895868 163.81507976 84.07367339 165.27680001 84.08576965 166.73844337 C84.1012376 168.73730444 84.08950813 170.73632033 84.07650757 172.73519897 C84.0775971 173.85274755 84.07868664 174.97029613 84.07980919 176.12170982 C83.07851033 182.39080932 78.65588625 186.65196652 73.953125 190.578125 C67.12900396 195.35613397 58.91858088 197.54630576 51.01953125 199.92578125 C50.01224976 200.22959717 50.01224976 200.22959717 48.98461914 200.53955078 C46.85974287 201.15191147 44.72860108 201.70698466 42.58203125 202.23828125 C41.83123291 202.4288208 41.08043457 202.61936035 40.30688477 202.81567383 C31.7225046 204.69144243 23.07696427 204.57542938 14.33374023 204.55395508 C11.68104765 204.55082435 9.02950623 204.57421548 6.37695312 204.59960938 C-15.48692602 204.68204232 -43.60190951 202.78798436 -60.15625 186.53125 C-63.29964584 182.89199453 -64.53388467 180.48272409 -64.62329102 175.75585938 C-64.64322617 174.81426971 -64.66316132 173.87268005 -64.68370056 172.90255737 C-64.70042313 171.86865875 -64.71714569 170.83476013 -64.734375 169.76953125 C-64.7656826 168.1472612 -64.7656826 168.1472612 -64.79762268 166.49221802 C-64.86445781 162.90765016 -64.92313335 159.32301298 -64.98046875 155.73828125 C-65.00131531 154.50535339 -65.02216187 153.27242554 -65.04364014 152.00213623 C-65.45404069 127.4798126 -65.62265968 102.9631986 -65.4407959 78.43804932 C-65.41696244 75.09722254 -65.3984356 71.75638729 -65.37988281 68.41552734 C-65.34480124 62.71819958 -65.28527524 57.02155848 -65.20843506 51.324646 C-65.18173198 49.16427453 -65.16129459 47.00381535 -65.14752197 44.84332275 C-65.12637268 41.85588223 -65.08013847 38.8698392 -65.02734375 35.8828125 C-65.02610504 35.00602341 -65.02486633 34.12923431 -65.02359009 33.22587585 C-64.86365853 26.56240153 -63.19721333 22.28336661 -58.62109375 17.26953125 C-42.21089167 4.40393282 -20.42795874 0.21652741 0 0 Z " fill="#FD7F7F" transform="translate(246.41796875,95.76171875)"/>
<path d="M0 0 C0.33 0 0.66 0 1 0 C1.10156178 7.15319672 1.17153366 14.30620695 1.21972656 21.45996094 C1.23982071 23.89264881 1.26710088 26.32528851 1.30175781 28.7578125 C1.3503706 32.25793355 1.37299139 35.75741502 1.390625 39.2578125 C1.41127014 40.34240753 1.43191528 41.42700256 1.45318604 42.54446411 C1.45542714 50.11514785 0.27047098 53.30585437 -4.71875 58.94140625 C-12.42622786 65.9558872 -21.76496677 68.73613354 -31.5625 71.6875 C-32.56978149 71.99131592 -32.56978149 71.99131592 -33.59741211 72.30126953 C-35.72228838 72.91363022 -37.85343017 73.46870341 -40 74 C-41.12619751 74.28580933 -41.12619751 74.28580933 -42.27514648 74.57739258 C-50.85952665 76.45316118 -59.50506698 76.33714813 -68.24829102 76.31567383 C-70.9009836 76.3125431 -73.55252502 76.33593423 -76.20507812 76.36132812 C-98.06895727 76.44376107 -126.18394076 74.54970311 -142.73828125 58.29296875 C-146.0555388 54.45242551 -147.12579784 52.07392317 -147.11352539 47.09130859 C-147.11344986 46.07040131 -147.11337433 45.04949402 -147.11329651 43.99765015 C-147.10813522 42.89240997 -147.10297394 41.7871698 -147.09765625 40.6484375 C-147.0962413 39.5192691 -147.09482635 38.39010071 -147.09336853 37.22671509 C-147.08775744 33.60945012 -147.07520303 29.99224636 -147.0625 26.375 C-147.05748643 23.92708423 -147.05292328 21.47916748 -147.04882812 19.03125 C-147.0377844 13.02081234 -147.02103544 7.01041054 -147 1 C-146.37472412 1.79220947 -145.74944824 2.58441895 -145.10522461 3.40063477 C-133.89436493 17.2429197 -113.02919704 21.9307471 -96.11843872 23.8125 C-88.7492963 24.46473232 -81.32919235 24.39165099 -73.9375 24.375 C-73.02991943 24.37445618 -72.12233887 24.37391235 -71.18725586 24.37335205 C-57.78509831 24.33640301 -44.9243759 23.88080899 -32 20 C-31.22849609 19.77505859 -30.45699219 19.55011719 -29.66210938 19.31835938 C-18.29925545 15.91231811 -8.16586634 11.85306622 -1 2 C-0.67 1.34 -0.34 0.68 0 0 Z " fill="#FD7F7F" transform="translate(329,224)"/>
<path d="M0 0 C0.99 1.32 1.98 2.64 3 4 C15.07857623 17.90866353 35.60879629 21.56486803 53 24 C53.85207031 24.13148438 54.70414063 24.26296875 55.58203125 24.3984375 C77.16143029 27.19506715 100.41553107 24.95727561 121 18.1875 C121.97227539 17.86845703 122.94455078 17.54941406 123.94628906 17.22070312 C129.62786575 15.21404386 134.34883412 12.7143379 139.22265625 9.1652832 C141 8 141 8 143 8 C143.268125 7.4225 143.53625 6.845 143.8125 6.25 C145.01800803 3.96587952 146.43135523 2.04568469 148 0 C148.10164192 6.2986875 148.17156661 12.59716253 148.21972656 18.89648438 C148.23980888 21.03816634 148.26708037 23.1797937 148.30175781 25.32128906 C148.35042398 28.40443415 148.3730029 31.48685262 148.390625 34.5703125 C148.41127014 35.52366486 148.43191528 36.47701721 148.45318604 37.45925903 C148.4555676 44.55751045 146.97374066 47.64102476 142.28125 52.94140625 C136.77779052 57.95003713 130.9779943 60.54572995 124 63 C122.989375 63.35964844 121.97875 63.71929687 120.9375 64.08984375 C106.17959285 68.97840049 91.64560762 70.50339782 76.18920898 70.39111328 C73.56766598 70.37503169 70.94766869 70.3910659 68.32617188 70.41015625 C47.33640815 70.43669369 21.14766626 67.77937007 4.859375 53.06640625 C1 48.72911799 1 48.72911799 1 46 C0.34 46 -0.32 46 -1 46 C-0.67 30.82 -0.34 15.64 0 0 Z " fill="#FD7F7F" transform="translate(182,179)"/>
<path d="M0 0 C2.5 2.625 2.5 2.625 4 5 C4.474375 5.7425 4.94875 6.485 5.4375 7.25 C6.34252459 11.67456464 5.01829993 15.03840452 3 19 C-6.40171744 32.47397295 -27.15246665 36.09315691 -42.25 38.8203125 C-71.75558118 42.97685271 -108.88434506 42.01343972 -134 24 C-138.82449439 19.45563754 -140.63215082 15.11300671 -141.15625 8.58984375 C-140.93352818 4.89822953 -139.85295365 3.26730425 -137.23828125 0.71875 C-127.49504017 -6.7629709 -116.860089 -11.12347548 -105 -14 C-104.03537842 -14.24556641 -104.03537842 -14.24556641 -103.05126953 -14.49609375 C-72.4582703 -21.89774915 -24.96626396 -21.56638655 0 0 Z " fill="#FE8080" transform="translate(324,113)"/>
<path d="M0 0 C7.19057838 -0.09179462 14.37912687 -0.17144741 21.56982422 -0.21972656 C24.01618333 -0.23985052 26.46249429 -0.2671526 28.90869141 -0.30175781 C32.42362341 -0.35023963 35.93791984 -0.37296128 39.453125 -0.390625 C40.5480426 -0.41127014 41.64296021 -0.43191528 42.77105713 -0.45318604 C43.79181335 -0.45348816 44.81256958 -0.45379028 45.86425781 -0.45410156 C46.76138489 -0.46298401 47.65851196 -0.47186646 48.58282471 -0.48101807 C51.80338115 0.15987291 52.99130742 1.45368365 55 4 C55.50170898 7.14453125 55.50170898 7.14453125 55.49609375 10.8125 C55.49754898 11.46323486 55.49900421 12.11396973 55.50050354 12.78442383 C55.49884833 14.15613293 55.48732896 15.52786132 55.46655273 16.89941406 C55.4375879 18.99364461 55.44595005 21.08534258 55.45898438 23.1796875 C55.45274639 24.51563725 55.44435497 25.85157903 55.43359375 27.1875 C55.42384521 28.39792969 55.41409668 29.60835938 55.40405273 30.85546875 C54.96964257 34.23625599 54.40579716 35.62851578 52 38 C49.07081707 38.97639431 47.20974262 39.12136181 44.16137695 39.11352539 C42.69019157 39.11341209 42.69019157 39.11341209 41.18928528 39.11329651 C40.13295395 39.10813522 39.07662262 39.10297394 37.98828125 39.09765625 C36.36323921 39.09553383 36.36323921 39.09553383 34.70536804 39.09336853 C31.24105075 39.08776559 27.7767978 39.07521258 24.3125 39.0625 C21.96549572 39.05748538 19.61849044 39.05292241 17.27148438 39.04882812 C11.51427811 39.03864559 5.75721118 39.01907063 0 39 C0 26.13 0 13.26 0 0 Z " fill="#070707" transform="translate(271,342)"/>
<path d="M0 0 C7.19057838 -0.09179462 14.37912687 -0.17144741 21.56982422 -0.21972656 C24.01618333 -0.23985052 26.46249429 -0.2671526 28.90869141 -0.30175781 C32.42362341 -0.35023963 35.93791984 -0.37296128 39.453125 -0.390625 C40.5480426 -0.41127014 41.64296021 -0.43191528 42.77105713 -0.45318604 C43.79181335 -0.45348816 44.81256958 -0.45379028 45.86425781 -0.45410156 C46.76138489 -0.46298401 47.65851196 -0.47186646 48.58282471 -0.48101807 C51.80338115 0.15987291 52.99130742 1.45368365 55 4 C55.50170898 7.14453125 55.50170898 7.14453125 55.49609375 10.8125 C55.49754898 11.46323486 55.49900421 12.11396973 55.50050354 12.78442383 C55.49884833 14.15613293 55.48732896 15.52786132 55.46655273 16.89941406 C55.4375879 18.99364461 55.44595005 21.08534258 55.45898438 23.1796875 C55.45274639 24.51563725 55.44435497 25.85157903 55.43359375 27.1875 C55.42384521 28.39792969 55.41409668 29.60835938 55.40405273 30.85546875 C54.96964257 34.23625599 54.40579716 35.62851578 52 38 C49.07081707 38.97639431 47.20974262 39.12136181 44.16137695 39.11352539 C42.69019157 39.11341209 42.69019157 39.11341209 41.18928528 39.11329651 C40.13295395 39.10813522 39.07662262 39.10297394 37.98828125 39.09765625 C36.36323921 39.09553383 36.36323921 39.09553383 34.70536804 39.09336853 C31.24105075 39.08776559 27.7767978 39.07521258 24.3125 39.0625 C21.96549572 39.05748538 19.61849044 39.05292241 17.27148438 39.04882812 C11.51427811 39.03864559 5.75721118 39.01907063 0 39 C0 26.13 0 13.26 0 0 Z " fill="#080808" transform="translate(208,342)"/>
<path d="M0 0 C1.58962555 0.00848969 1.58962555 0.00848969 3.21136475 0.01715088 C6.59449528 0.0395326 9.97656484 0.08973402 13.359375 0.140625 C15.65363053 0.1606876 17.94790267 0.17893879 20.2421875 0.1953125 C25.86494503 0.2394032 31.48708421 0.30633364 37.109375 0.390625 C37.109375 3.030625 37.109375 5.670625 37.109375 8.390625 C22.589375 8.390625 8.069375 8.390625 -6.890625 8.390625 C-6.890625 10.700625 -6.890625 13.010625 -6.890625 15.390625 C-5.68003418 15.36444092 -4.46944336 15.33825684 -3.22216797 15.3112793 C1.28399051 15.22054462 5.79006879 15.16329129 10.296875 15.1159668 C12.24460443 15.09087554 14.1922402 15.05679439 16.13964844 15.01342773 C18.9448969 14.95253751 21.74889708 14.92436169 24.5546875 14.90234375 C25.42054474 14.87653732 26.28640198 14.8507309 27.17849731 14.82414246 C31.41323641 14.82219307 34.25944955 15.04829091 37.66333008 17.70800781 C40.78326068 21.12968637 40.83316851 22.88314218 40.671875 27.453125 C40.65253906 28.66097656 40.63320313 29.86882812 40.61328125 31.11328125 C40.08825178 34.52800781 39.54498776 35.98955994 37.109375 38.390625 C34.18019207 39.36701931 32.31911762 39.51198681 29.27075195 39.50415039 C27.79956657 39.50403709 27.79956657 39.50403709 26.29866028 39.50392151 C25.24232895 39.49876022 24.18599762 39.49359894 23.09765625 39.48828125 C21.47261421 39.48615883 21.47261421 39.48615883 19.81474304 39.48399353 C16.35042575 39.47839059 12.8861728 39.46583758 9.421875 39.453125 C7.07487072 39.44811038 4.72786544 39.44354741 2.38085938 39.43945312 C-3.37632408 39.42842021 -9.13346994 39.4116792 -14.890625 39.390625 C-14.890625 36.750625 -14.890625 34.110625 -14.890625 31.390625 C0.619375 31.390625 16.129375 31.390625 32.109375 31.390625 C31.614375 27.925625 31.614375 27.925625 31.109375 24.390625 C29.85278076 24.37604248 28.59618652 24.36145996 27.30151367 24.34643555 C22.64399608 24.28850896 17.98696484 24.21127589 13.32983398 24.12817383 C11.31331265 24.0948979 9.29669758 24.06687432 7.2800293 24.04418945 C4.382894 24.01069244 1.48661982 23.95837956 -1.41015625 23.90234375 C-2.31337112 23.89595383 -3.216586 23.8895639 -4.14717102 23.88298035 C-4.98781601 23.86318619 -5.828461 23.84339203 -6.69458008 23.82299805 C-7.43404373 23.81189499 -8.17350739 23.80079193 -8.93537903 23.78935242 C-11.45117443 23.27631384 -12.322711 22.39292476 -13.890625 20.390625 C-14.99323588 17.08279235 -15.12803279 14.43503231 -15.203125 10.953125 C-15.25919922 9.25349609 -15.25919922 9.25349609 -15.31640625 7.51953125 C-14.890625 4.390625 -14.890625 4.390625 -13.54467773 2.21948242 C-9.30560294 -0.70158365 -5.02260324 -0.10074102 0 0 Z " fill="#0A0A0A" transform="translate(348.890625,341.609375)"/>
<path d="M0 0 C2.31 0 4.62 0 7 0 C7.33 9.9 7.66 19.8 8 30 C15.59 30.33 23.18 30.66 31 31 C31 20.77 31 10.54 31 0 C33.64 0 36.28 0 39 0 C39 10.23 39 20.46 39 31 C46.59 31 54.18 31 62 31 C62 20.77 62 10.54 62 0 C64.64 0 67.28 0 70 0 C70.09913574 4.75050819 70.17159264 9.50040976 70.21972656 14.25170898 C70.23979892 15.86672458 70.2670633 17.48166789 70.30175781 19.09643555 C70.35047215 21.42254501 70.37301154 23.74769093 70.390625 26.07421875 C70.41127014 26.79212082 70.43191528 27.51002289 70.45318604 28.24967957 C70.45470052 31.66002918 70.14547396 33.76248501 68.35174561 36.69110107 C65.37811325 39.61055654 64.03170621 39.62744176 59.91796875 39.63110352 C58.68989502 39.64363663 57.46182129 39.65616974 56.1965332 39.66908264 C54.86017801 39.65681424 53.52383297 39.64339421 52.1875 39.62890625 C50.81274223 39.62973522 49.43798456 39.63219568 48.06323242 39.63621521 C45.18475439 39.63907134 42.30705528 39.62439229 39.42871094 39.59692383 C35.74292049 39.56283947 32.05852252 39.56885994 28.37266541 39.5875864 C25.53467242 39.59816585 22.69700229 39.58921038 19.85903931 39.57420158 C18.50030476 39.56902612 17.14153641 39.5694939 15.7828064 39.57574654 C13.88250356 39.58120897 11.98218396 39.55795024 10.08203125 39.53344727 C9.00155518 39.52724869 7.9210791 39.52105011 6.80786133 39.5146637 C3.30757361 38.8730825 2.1170531 37.82039215 0 35 C-0.34923596 32.17982573 -0.46849209 29.76279737 -0.390625 26.953125 C-0.38496521 26.18192322 -0.37930542 25.41072144 -0.37347412 24.6161499 C-0.35113589 22.16012721 -0.30094763 19.70557945 -0.25 17.25 C-0.22993154 15.58205237 -0.21168137 13.91408179 -0.1953125 12.24609375 C-0.15127992 8.16349677 -0.08227283 4.08199819 0 0 Z " fill="#060606" transform="translate(130,342)"/>
<path d="M0 0 C12.87 0 25.74 0 39 0 C39 7.59 39 15.18 39 23 C26.13 23 13.26 23 0 23 C0 15.41 0 7.82 0 0 Z " fill="#FEFEFE" transform="translate(279,350)"/>
<path d="M0 0 C0.75 1.625 0.75 1.625 1 4 C-5.07489162 15.64354227 -17.31485349 20.32283378 -29.24658203 24.09936523 C-30.30014893 24.42142944 -30.30014893 24.42142944 -31.375 24.75 C-32.00905762 24.94859619 -32.64311523 25.14719238 -33.29638672 25.35180664 C-46.59877143 29.1874535 -60.39484911 29.41083986 -74.125 29.375 C-74.98372711 29.3737915 -75.84245422 29.37258301 -76.72720337 29.37133789 C-99.54162434 29.2842954 -126.1822602 27.03320877 -143.3203125 10.078125 C-144.93611726 8.07903632 -146.12560646 6.41686306 -147 4 C-146.67 3.01 -146.34 2.02 -146 1 C-145.61134766 1.72703125 -145.61134766 1.72703125 -145.21484375 2.46875 C-138.98741776 12.37169041 -127.20870326 16.63286906 -116.4375 19.875 C-115.80287842 20.06602295 -115.16825684 20.2570459 -114.5144043 20.45385742 C-101.17045842 24.1267323 -87.67035222 24.40593548 -73.9375 24.375 C-73.02991943 24.37445618 -72.12233887 24.37391235 -71.18725586 24.37335205 C-57.78509831 24.33640301 -44.9243759 23.88080899 -32 20 C-31.22849609 19.77505859 -30.45699219 19.55011719 -29.66210938 19.31835938 C-18.29925545 15.91231811 -8.16586634 11.85306622 -1 2 C-0.67 1.34 -0.34 0.68 0 0 Z " fill="#140B0B" transform="translate(329,224)"/>
<path d="M0 0 C0.78755624 2.27684529 1.13867739 3.56885555 0.390625 5.89453125 C-7.10134446 18.49232922 -22.42113476 22.43658097 -35.72558594 26.18554688 C-66.3120096 33.79338384 -105.02812948 32.76039186 -133.375 17.9375 C-139.46067304 14.26511109 -144.43161566 10.94974587 -147 4 C-146.67 3.01 -146.34 2.02 -146 1 C-145.443125 1.9075 -144.88625 2.815 -144.3125 3.75 C-136.2355343 15.10141126 -119.60566749 20.10656802 -106.46191406 22.453125 C-74.12036428 27.75015257 -37.11662453 27.73848028 -8.0390625 10.4765625 C-4.10001992 7.62415235 -1.56024701 4.68074102 0 0 Z " fill="#110909" transform="translate(329,175)"/>
<path d="M0 0 C0.33 0 0.66 0 1 0 C1.02578125 0.58007812 1.0515625 1.16015625 1.078125 1.7578125 C1.47655712 7.24530943 2.17157701 10.80696529 6 15 C17.2223325 23.69390404 30.20520949 27.57187406 44 30 C45.07894531 30.20625 46.15789062 30.4125 47.26953125 30.625 C74.77575381 35.15173834 112.87540136 34.08306576 137 18 C142.02161383 13.66033373 144.77802108 9.51722089 146 3 C146.33 3 146.66 3 147 3 C147.55202749 8.29946392 146.84741228 11.63325694 143.765625 16.02734375 C129.92412756 31.49184864 102.5266529 34.64171036 83 36 C68.39385169 36.65489352 54.31738539 35.98366721 40 33 C38.88367188 32.77183594 37.76734375 32.54367188 36.6171875 32.30859375 C23.39840627 29.2886372 8.16808601 24.49717229 0 13 C-1.29721449 9.10835652 -1.13033993 6.10570774 -1 2 C-0.67 1.34 -0.34 0.68 0 0 Z " fill="#1B0F0F" transform="translate(183,120)"/>
<path d="M0 0 C2.25245881 2.68841859 3.88213958 4.64641875 5 8 C6.7212879 9.06338261 6.7212879 9.06338261 9 10 C10.03511719 10.53496094 11.07023438 11.06992187 12.13671875 11.62109375 C13.30847656 12.22050781 14.48023438 12.81992187 15.6875 13.4375 C16.84636719 14.03433594 18.00523437 14.63117188 19.19921875 15.24609375 C46.33334335 28.32567376 85.39379909 27.75261315 114 20 C114.71752441 19.80744629 115.43504883 19.61489258 116.17431641 19.41650391 C127.87522299 16.15246634 138.61617418 11.978143 146 2 C146.33 2.66 146.66 3.32 147 4 C140.00213749 13.12966169 132.09260977 17.50443316 121.375 21.1875 C120.34765747 21.54448975 120.34765747 21.54448975 119.29956055 21.90869141 C105.75784441 26.29503323 92.50539776 27.49375894 78.37451172 27.39111328 C75.7660628 27.37509862 73.15918227 27.39102372 70.55078125 27.41015625 C48.32376598 27.439397 21.43078371 25.21712656 4.26171875 9.3984375 C1.6143773 6.49009056 0.3453793 3.91429872 0 0 Z " fill="#180F0F" transform="translate(182,273)"/>
<path d="M0 0 C5.39346988 -0.02464849 10.78690725 -0.04283531 16.18041992 -0.05493164 C18.01668875 -0.05997231 19.85295354 -0.06680477 21.68920898 -0.07543945 C24.32276401 -0.08751672 26.95626616 -0.09323081 29.58984375 -0.09765625 C30.41588608 -0.10281754 31.24192841 -0.10797882 32.09300232 -0.11329651 C34.06236368 -0.11349205 36.03161614 -0.06204152 38 0 C39 1 39 1 39 8 C26.13 8 13.26 8 0 8 C0 5.36 0 2.72 0 0 Z " fill="#F6F6F6" transform="translate(216,365)"/>
<path d="M0 0 C12.87 0 25.74 0 39 0 C39 2.31 39 4.62 39 7 C26.13 7 13.26 7 0 7 C0 4.69 0 2.38 0 0 Z " fill="#FEFEFE" transform="translate(216,350)"/>
<path d="M0 0 C0.495 0.99 0.495 0.99 1 2 C-10.52551248 17.03659575 -28.66274743 21.35320787 -46.546875 24.5546875 C-49.74739979 24.96742486 -52.77809965 25.08894817 -56 25 C-54 22 -54 22 -51.99145508 21.37158203 C-51.17572021 21.25153809 -50.35998535 21.13149414 -49.51953125 21.0078125 C-48.15501831 20.7905249 -48.15501831 20.7905249 -46.76293945 20.56884766 C-45.30247192 20.34914307 -45.30247192 20.34914307 -43.8125 20.125 C-27.70391787 17.43697097 -10.21058408 13.79808659 0 0 Z " fill="#231515" transform="translate(328,275)"/>
<path d="M0 0 C2.25245881 2.68841859 3.88213958 4.64641875 5 8 C6.7212879 9.06338261 6.7212879 9.06338261 9 10 C10.03511719 10.53496094 11.07023438 11.06992187 12.13671875 11.62109375 C20.54103315 15.92033049 28.53950769 19.78711637 38 21 C37.505 22.485 37.505 22.485 37 24 C23.83114695 21.01324982 12.10856157 17.28194112 2.4375 7.375 C0.92094134 4.86938135 0.3310952 2.89708296 0 0 Z " fill="#262121" transform="translate(182,273)"/>
<path d="M0 0 C0 0.33 0 0.66 0 1 C-2.54046458 1.50688605 -5.08208876 2.00566874 -7.625 2.5 C-8.33785156 2.64308594 -9.05070312 2.78617187 -9.78515625 2.93359375 C-13.92144935 3.73049426 -17.76433679 4.16034056 -22 4 C-20 1 -20 1 -17.20703125 0.234375 C-5.91855655 -1.3764085 -5.91855655 -1.3764085 0 0 Z " fill="#342727" transform="translate(294,296)"/>
<path d="M0 0 C5.61 0.66 11.22 1.32 17 2 C14 5 14 5 11.22265625 5.14453125 C10.17980469 5.03496094 9.13695312 4.92539063 8.0625 4.8125 C7.02222656 4.71582031 5.98195312 4.61914062 4.91015625 4.51953125 C2.21315579 4.03805332 0.34613645 3.37376182 -2 2 C-1.34 2 -0.68 2 0 2 C0 1.34 0 0.68 0 0 Z " fill="#231111" transform="translate(225,150)"/>
<path d="M0 0 C-0.33 0.99 -0.66 1.98 -1 3 C-3.30748496 4.07407228 -5.47746557 4.94125086 -7.875 5.75 C-8.51308594 5.98332031 -9.15117187 6.21664062 -9.80859375 6.45703125 C-14.608522 8.13049267 -14.608522 8.13049267 -18 7 C-17 5 -17 5 -13.69140625 3.7109375 C-12.31762852 3.25789732 -10.94117319 2.81291651 -9.5625 2.375 C-8.86833984 2.14554688 -8.17417969 1.91609375 -7.45898438 1.6796875 C-2.29494513 0 -2.29494513 0 0 0 Z " fill="#110A0A" transform="translate(315,142)"/>
<path d="M0 0 C5.50808397 0.59015185 10.64878069 1.56663769 16 3 C16 3.66 16 4.32 16 5 C9.79029227 5.33266291 5.71735105 4.45029331 0 2 C0 1.34 0 0.68 0 0 Z " fill="#100909" transform="translate(209,147)"/>
<path d="M0 0 C2.25245881 2.68841859 3.88213958 4.64641875 5 8 C6.71519747 9.02651373 6.71519747 9.02651373 9 10 C11.34955148 11.30586659 13.67152857 12.6566511 16 14 C15.34 14.66 14.68 15.32 14 16 C1.93237705 8.49641393 1.93237705 8.49641393 0.25 2.1875 C0.1675 1.465625 0.085 0.74375 0 0 Z " fill="#2B1E1E" transform="translate(182,273)"/>
<path d="M0 0 C0.33 0.66 0.66 1.32 1 2 C-3.21028351 7.2724523 -6.91410189 11.01915194 -13 14 C-13.66 13.34 -14.32 12.68 -15 12 C-14.41992188 11.72027344 -13.83984375 11.44054687 -13.2421875 11.15234375 C-7.56796704 8.24032632 -3.77533161 5.13741203 0 0 Z " fill="#291B1B" transform="translate(328,275)"/>
<path d="M0 0 C5.94 0.99 5.94 0.99 12 2 C11.67 2.99 11.34 3.98 11 5 C9.53890937 4.74445946 8.08111904 4.46999628 6.625 4.1875 C5.81289062 4.03667969 5.00078125 3.88585937 4.1640625 3.73046875 C2 3 2 3 0 0 Z " fill="#322A2A" transform="translate(208,292)"/>
<path d="M0 0 C-1.43429001 0.67354499 -2.87257057 1.33859701 -4.3125 2 C-5.51326172 2.556875 -5.51326172 2.556875 -6.73828125 3.125 C-9 4 -9 4 -12 4 C-12 3.34 -12 2.68 -12 2 C-10.75579353 1.4654744 -9.50429064 0.94791389 -8.25 0.4375 C-7.55390625 0.14746094 -6.8578125 -0.14257812 -6.140625 -0.44140625 C-3.69987216 -1.07831803 -2.3596345 -0.80248831 0 0 Z " fill="#1A1111" transform="translate(315,289)"/>
<path d="M0 0 C3.3 0.33 6.6 0.66 10 1 C8.68 1.33 7.36 1.66 6 2 C6 2.66 6 3.32 6 4 C3.36 3.67 0.72 3.34 -2 3 C-1.34 2.67 -0.68 2.34 0 2 C0 1.34 0 0.68 0 0 Z " fill="#2D1616" transform="translate(225,150)"/>
<path d="M0 0 C0 0.33 0 0.66 0 1 C-1.41377782 1.36552803 -2.83120576 1.71695495 -4.25 2.0625 C-5.03890625 2.25972656 -5.8278125 2.45695312 -6.640625 2.66015625 C-9.10394822 3.01497267 -10.65604132 2.76877544 -13 2 C-8.22169095 -0.91360308 -5.44893869 -1.19876651 0 0 Z " fill="#393333" transform="translate(294,296)"/>
<path d="M0 0 C0 0.66 0 1.32 0 2 C-1.98 2.33 -3.96 2.66 -6 3 C-6 2.34 -6 1.68 -6 1 C-6.66 0.67 -7.32 0.34 -8 0 C-4.94736336 -0.98120464 -3.05263664 -0.98120464 0 0 Z " fill="#291515" transform="translate(298,149)"/>
<path d="M0 0 C0 0.66 0 1.32 0 2 C-4.625 4.125 -4.625 4.125 -8 3 C-7 1 -7 1 -5.125 0.375 C-3 0 -3 0 0 0 Z " fill="#1B0E0E" transform="translate(305,146)"/>
</svg>
